<?xml version="1.0" standalone="no"?><!DOCTYPE svg PUBLIC "-//W3C//DTD SVG 1.1//EN" "http://www.w3.org/Graphics/SVG/1.1/DTD/svg11.dtd"><svg t="1662645764995" class="icon" viewBox="0 0 1024 1024" version="1.1" xmlns="http://www.w3.org/2000/svg" p-id="9469" xmlns:xlink="http://www.w3.org/1999/xlink" width="54" height="54"><path d="M947.2 0H76.8a44.8 44.8 0 0 0-44.8 44.8v934.4a44.8 44.8 0 0 0 44.8 44.8h870.4a44.864 44.864 0 0 0 44.8-44.8V44.8a44.864 44.864 0 0 0-44.8-44.8z m-19.2 960h-832V64h832z" p-id="9470"></path><path d="M443.84 569.216a32 32 0 0 0 45.248 0l274.176-274.24a32 32 0 1 0-45.248-45.248L466.56 501.312 305.92 340.864a32 32 0 0 0-45.248 45.248zM251.264 719.616h521.408v64H251.264z" p-id="9471"></path></svg>
