<?xml version="1.0" standalone="no"?><!DOCTYPE svg PUBLIC "-//W3C//DTD SVG 1.1//EN" "http://www.w3.org/Graphics/SVG/1.1/DTD/svg11.dtd"><svg t="1662645710818" class="icon" viewBox="0 0 1024 1024" version="1.1" xmlns="http://www.w3.org/2000/svg" p-id="8270" xmlns:xlink="http://www.w3.org/1999/xlink" width="54" height="54"><path d="M707.61397 256.365426a255.877978 255.877978 0 1 0-395.971172 213.658112A571.247586 571.247586 0 0 0 0.11136 976.022239a48.616816 48.616816 0 0 0 47.977121 47.977121 48.616816 48.616816 0 0 0 47.977121-47.977121A472.734565 472.734565 0 0 1 495.874943 512.243404 51.175596 51.175596 0 0 0 511.867316 504.567065 255.877978 255.877978 0 0 0 707.61397 256.365426z m-255.877978-159.923737A159.923736 159.923736 0 1 1 291.812255 256.365426a159.923736 159.923736 0 0 1 159.923737-159.923737zM1019.785103 730.37938a51.175596 51.175596 0 0 0-26.867188-26.227492L619.975762 557.661745a47.977121 47.977121 0 0 0-63.969494 63.969495L703.7758 993.294003a49.256511 49.256511 0 0 0 44.138951 30.705357 47.337426 47.337426 0 0 0 44.138951-29.425967l60.131325-142.012278 141.372583-59.49163a47.977121 47.977121 0 0 0 26.227493-62.690105z m-221.974146 41.580172a47.977121 47.977121 0 0 0-25.587798 25.587798l-21.749628 51.175595-63.969495-161.842821 161.203127 63.969495z" p-id="8271"></path></svg>