<?xml version="1.0" standalone="no"?><!DOCTYPE svg PUBLIC "-//W3C//DTD SVG 1.1//EN" "http://www.w3.org/Graphics/SVG/1.1/DTD/svg11.dtd"><svg t="1662645024900" class="icon" viewBox="0 0 1137 1024" version="1.1" xmlns="http://www.w3.org/2000/svg" p-id="2675" xmlns:xlink="http://www.w3.org/1999/xlink" width="59.958984375" height="54"><path d="M177.7968 735.303436l179.555836 135.553107 142.602675-151.397849-309.831839-202.477H0V1024h524.595227l612.614109-394.319224s-200.691109-158.447417-462.988722-24.653344c0-7.03614-163.711094 105.636087-163.711094 105.636088" p-id="2676"></path><path d="M509.448728 0.013428c-198.341254 0-359.111671 160.783845-359.111671 359.125098S311.107474 718.236769 509.448728 718.236769s359.111671-160.783845 359.111671-359.111671S707.789982 0.013428 509.448728 0.013428z m148.470601 364.831891a14.018568 14.018568 0 0 1-3.880619 5.169682l-98.855075 98.855075a14.085707 14.085707 0 0 1-19.913349-19.913349l75.356517-75.369945H373.828482a14.099135 14.099135 0 1 1 0-28.198269h237.57713l-76.135326-76.081616a14.085707 14.085707 0 0 1 19.913349-19.913349l99.365329 99.36533c0.161133 0.147705 0.375977 0.201416 0.53711 0.362549a14.219984 14.219984 0 0 1 2.873538 15.750747z" p-id="2677"></path></svg>