<?xml version="1.0" standalone="no"?><!DOCTYPE svg PUBLIC "-//W3C//DTD SVG 1.1//EN" "http://www.w3.org/Graphics/SVG/1.1/DTD/svg11.dtd"><svg t="1662645570315" class="icon" viewBox="0 0 1024 1024" version="1.1" xmlns="http://www.w3.org/2000/svg" p-id="7577" xmlns:xlink="http://www.w3.org/1999/xlink" width="54" height="54"><path d="M501.236093 959.654698l-0.476279-0.809675c-0.642977-1.119256-1.762233-2.548093-2.738605-3.810232l-0.333395-0.547721c-0.500093-0.714419-1.095442-1.476465-1.476465-2.190884l-2.452837-3.548279-0.285768-0.333395-120.141395-184.939163a99.399442 99.399442 0 0 1-14.288372-73.370791 97.018047 97.018047 0 0 1 39.936-62.321116 92.207628 92.207628 0 0 1 93.350697-6.786977v-309.105116C492.186791 258.143256 532.694326 214.325581 582.465488 214.325581c49.699721 0 90.278698 43.817674 90.278698 97.63721v99.304186a72.394419 72.394419 0 0 1 22.670884-3.691163c23.528186 0 45.770419 11.335442 61.44 30.910512a76.323721 76.323721 0 0 1 41.174325-12.764279 75.013953 75.013953 0 0 1 46.43721 16.407813c10.35907 8.096744 19.051163 18.574884 25.36186 30.743814 7.334698-2.309953 14.955163-3.572093 22.599442-3.572093 46.31814 0 83.968 43.817674 83.968 97.63721v259.762604c0 57.46307-25.409488 120.974884-64.726326 161.887256-21.908837 22.789953-45.484651 35.411349-66.607628 35.411349H588.395163c-48.104186 0-69.703442-35.673302-87.15907-64.345302z m349.041116 16.336372c7.787163 0 27.147907-13.002419 46.127628-41.793489 20.36093-31.077209 32.029767-68.274605 32.029768-101.923721V565.081302c0-21.837395-13.478698-40.793302-28.838698-40.793302a20.48 20.48 0 0 0-9.716093 2.500465v93.445954h-0.095256c-1.095442 15.669581-13.669209 27.814698-28.838698 27.886139-15.217116 0-27.862326-12.383256-28.886325-27.862325h-0.047628V539.147907l-1.738419-22.76614c-1.500279-20.289488-14.478884-36.840186-28.981581-36.840186-6.429767 0-13.026233 3.572093-18.241488 9.525582v101.066418c-0.047628 16.526884-13.002419 29.886512-29.005396 29.93414-15.955349-0.071442-28.886326-13.43107-28.933953-29.93414v-88.921302l-2.16707-10.382884c-3.572093-17.28893-15.574326-30.291349-27.790884-30.291348-8.334884 0-16.669767 5.90586-22.313674 15.502883l-0.928744 100.256744v37.697489c0 14.621767-11.597395 26.647814-25.742884 26.647814h-6.26307c-14.21693 0-25.766698-12.026047-25.766697-26.647814V313.082047l-0.166698-10.621024c0-22.504186-15.812465-40.72186-35.363721-40.72186-19.527442 0-35.339907 18.265302-35.339907 40.72186l1.262139 292.435349c0.071442 0.881116 0.095256 1.786047 0.095256 2.690977v116.021581c-0.23814 14.931349-11.02586 27.433674-25.338046 29.338791a29.053023 29.053023 0 0 1-31.672558-21.765954l-10.882977-32.791814a39.364465 39.364465 0 0 0-25.123721-17.384186 38.340465 38.340465 0 0 0-29.624558 6.144c-18.098605 12.573767-22.885209 37.911814-10.763907 56.629582l123.856372 190.34493 0.404837 0.523907 1.524093 2.333767 1.905116 2.929117c1.166884 1.905116 2.429023 3.714977 3.54828 5.12l0.809674 1.047814 0.595349 1.309767c19.289302 31.86307 26.719256 38.745302 41.364837 38.745302h265.049302v-0.190511 0.047628z" fill="#000000" p-id="7578"></path><path d="M250.046512 404.837209a202.418605 202.418605 0 1 1 0-404.837209 202.418605 202.418605 0 0 1 0 404.837209z m0-47.627907a154.790698 154.790698 0 1 0 0-309.581395 154.790698 154.790698 0 0 0 0 309.581395z" fill="#000000" p-id="7579"></path><path d="M232.186047 95.255814a17.860465 17.860465 0 0 1 17.860465 17.860465v119.069768a17.860465 17.860465 0 1 1-35.720931 0v-119.069768A17.860465 17.860465 0 0 1 232.186047 95.255814z" fill="#000000" p-id="7580"></path><path d="M214.325581 214.325581m17.860466 0l84.158511 0q17.860465 0 17.860465 17.860466l0 0q0 17.860465-17.860465 17.860465l-84.158511 0q-17.860465 0-17.860466-17.860465l0 0q0-17.860465 17.860466-17.860466Z" fill="#000000" p-id="7581"></path></svg>