<svg xmlns="http://www.w3.org/2000/svg" width="24" height="26" viewBox="0 0 24 26">
  <path id="Icon_hp_password" d="M21.429,13H8.143V7.764a3.79,3.79,0,0,1,3.82-3.7,3.769,3.769,0,0,1,3.895,3.656v.812A1.251,1.251,0,0,0,17.143,9.75h1.714a1.251,1.251,0,0,0,1.286-1.219V7.719A7.95,7.95,0,0,0,11.973,0,7.985,7.985,0,0,0,3.857,7.795V13H2.571A2.508,2.508,0,0,0,0,15.437v8.125A2.508,2.508,0,0,0,2.571,26H21.429A2.508,2.508,0,0,0,24,23.562V15.437A2.508,2.508,0,0,0,21.429,13Z" transform="translate(0 0)" fill="#2079a9"/>
</svg>
