<svg xmlns="http://www.w3.org/2000/svg" width="117.748" height="101.5" viewBox="0 0 117.748 101.5">
  <g id="icon_notice" transform="translate(-6240.167 -2886.5)">
    <path id="Path_742" data-name="Path 742" d="M146.9,49.136a7.331,7.331,0,0,0-12.495,0l-49.941,81.3a7.354,7.354,0,0,0,6.252,11.206h32.82v-4.9H90.717A2.453,2.453,0,0,1,88.631,133L138.572,51.7a2.448,2.448,0,0,1,4.167.005L192.68,133a2.45,2.45,0,0,1-2.086,3.732h-32.82v4.9h32.82a7.351,7.351,0,0,0,6.252-11.2Z" transform="translate(6158.383 2842.359)" fill="#2079a9" stroke="#2079a9" stroke-width="3"/>
    <path id="Icon_metro-notification" data-name="Icon metro-notification" d="M16.067,55.407h12V67.363h-12Zm0-50.045h12V46.524h-12Z" transform="translate(6276.973 2920.637)" fill="#2079a9"/>
  </g>
</svg>
